<svg xmlns="http://www.w3.org/2000/svg" xmlns:xlink="http://www.w3.org/1999/xlink" width="1080" zoomAndPan="magnify" viewBox="0 0 810 809.999993" height="1080" preserveAspectRatio="xMidYMid meet" version="1.0"><defs><clipPath id="856cf0ff4b"><path d="M 121.5 121.5 L 688.5 121.5 L 688.5 688.5 L 121.5 688.5 Z M 121.5 121.5 " clip-rule="nonzero"/></clipPath></defs><g clip-path="url(#856cf0ff4b)"><path fill="#ffffff" d="M 405 121.5 L 355.441406 155.554688 L 296.472656 143.09375 L 263.527344 193.484375 L 204.554688 204.558594 L 193.480469 263.527344 L 143.09375 296.472656 L 155.277344 355.445312 L 121.5 405 L 155.277344 454.835938 L 143.09375 513.527344 L 193.480469 546.472656 L 204.554688 605.445312 L 263.527344 616.796875 L 296.472656 666.90625 L 355.441406 654.726562 L 405 688.5 L 454.558594 654.726562 L 513.527344 666.90625 L 546.472656 616.796875 L 605.441406 605.445312 L 616.515625 546.472656 L 666.90625 513.527344 L 654.722656 454.835938 L 688.5 405 L 654.722656 355.445312 L 666.90625 296.472656 L 616.515625 263.527344 L 605.441406 204.558594 L 546.472656 193.484375 L 513.527344 143.09375 L 454.558594 155.554688 Z M 405 210.09375 C 512.644531 210.09375 599.90625 297.355469 599.90625 405 C 599.90625 512.644531 512.644531 599.90625 405 599.90625 C 297.355469 599.90625 210.09375 512.644531 210.09375 405 C 210.09375 297.355469 297.355469 210.09375 405 210.09375 Z M 491.101562 315.851562 L 375.929688 438.777344 L 315.574219 385.066406 L 280.136719 424.65625 L 359.871094 495.53125 L 379.253906 512.699219 L 396.972656 493.871094 L 529.863281 352.121094 Z M 491.101562 315.851562 " fill-opacity="1" fill-rule="nonzero"/></g></svg>