<svg xmlns="http://www.w3.org/2000/svg" xmlns:xlink="http://www.w3.org/1999/xlink" width="1080" zoomAndPan="magnify" viewBox="0 0 810 809.999993" height="1080" preserveAspectRatio="xMidYMid meet" version="1.0"><defs><clipPath id="7907e19717"><path d="M 537 112.285156 L 557 112.285156 L 557 141 L 537 141 Z M 537 112.285156 " clip-rule="nonzero"/></clipPath><clipPath id="8b17828bb7"><path d="M 112.285156 349 L 265 349 L 265 698 L 112.285156 698 Z M 112.285156 349 " clip-rule="nonzero"/></clipPath></defs><path fill="#ffffff" d="M 603.28125 395.550781 L 603.28125 377.273438 C 603.28125 363.777344 608.316406 351.304688 617.085938 343.042969 C 638.3125 323.0625 650.492188 294.753906 650.492188 265.371094 C 650.492188 234.871094 637.578125 205.835938 615.066406 185.714844 C 592.878906 165.898438 564.417969 156.832031 534.808594 160.15625 C 486.492188 165.613281 448.003906 205.402344 443.28125 254.777344 C 440.121094 287.863281 451.894531 319.835938 475.59375 342.496094 C 484.726562 351.238281 489.976562 363.890625 489.976562 377.234375 L 489.976562 395.550781 C 489.976562 400.765625 494.203125 404.996094 499.417969 404.996094 L 593.839844 404.996094 C 599.050781 404.996094 603.28125 400.765625 603.28125 395.550781 Z M 584.398438 386.109375 L 508.859375 386.109375 L 508.859375 377.234375 C 508.859375 358.765625 501.484375 341.125 488.632812 328.84375 C 469.144531 310.210938 459.457031 283.878906 462.074219 256.582031 C 465.953125 216.054688 497.425781 183.394531 536.921875 178.925781 C 561.085938 176.226562 584.359375 183.621094 602.480469 199.804688 C 620.988281 216.347656 631.609375 240.234375 631.609375 265.371094 C 631.609375 289.5625 621.601562 312.867188 604.140625 329.304688 C 591.59375 341.109375 584.398438 358.59375 584.398438 377.273438 Z M 584.398438 386.109375 " fill-opacity="1" fill-rule="nonzero"/><path fill="#ffffff" d="M 499.417969 414.4375 L 593.839844 414.4375 L 593.839844 433.320312 L 499.417969 433.320312 Z M 499.417969 414.4375 " fill-opacity="1" fill-rule="nonzero"/><path fill="#ffffff" d="M 592.519531 457.703125 L 593.347656 455.199219 C 594.3125 452.320312 593.820312 449.15625 592.046875 446.691406 C 590.28125 444.21875 587.429688 442.761719 584.398438 442.761719 L 508.859375 442.761719 C 505.828125 442.761719 502.976562 444.21875 501.203125 446.691406 C 499.425781 449.15625 498.945312 452.320312 499.898438 455.199219 L 500.730469 457.703125 C 507.167969 477 525.175781 489.976562 545.523438 489.976562 L 547.734375 489.976562 C 568.082031 489.976562 586.089844 477 592.519531 457.703125 Z M 547.734375 471.089844 L 545.523438 471.089844 C 537.261719 471.089844 529.660156 467.53125 524.402344 461.648438 L 568.855469 461.648438 C 563.597656 467.53125 555.996094 471.089844 547.734375 471.089844 Z M 547.734375 471.089844 " fill-opacity="1" fill-rule="nonzero"/><path fill="#ffffff" d="M 395.550781 244.476562 L 423.878906 244.476562 L 423.878906 263.359375 L 395.550781 263.359375 Z M 395.550781 244.476562 " fill-opacity="1" fill-rule="nonzero"/><path fill="#ffffff" d="M 669.378906 244.476562 L 697.707031 244.476562 L 697.707031 263.359375 L 669.378906 263.359375 Z M 669.378906 244.476562 " fill-opacity="1" fill-rule="nonzero"/><path fill="#ffffff" d="M 433.117188 153.769531 L 446.472656 140.417969 L 466.503906 160.445312 L 453.148438 173.800781 Z M 433.117188 153.769531 " fill-opacity="1" fill-rule="nonzero"/><path fill="#ffffff" d="M 626.742188 160.449219 L 646.773438 140.417969 L 660.125 153.769531 L 640.09375 173.800781 Z M 626.742188 160.449219 " fill-opacity="1" fill-rule="nonzero"/><g clip-path="url(#7907e19717)"><path fill="#ffffff" d="M 537.1875 112.285156 L 556.070312 112.285156 L 556.070312 140.609375 L 537.1875 140.609375 Z M 537.1875 112.285156 " fill-opacity="1" fill-rule="nonzero"/></g><g clip-path="url(#8b17828bb7)"><path fill="#ffffff" d="M 136.210938 697.382812 C 137.023438 697.601562 137.84375 697.707031 138.65625 697.707031 C 141.320312 697.707031 143.90625 696.570312 145.71875 694.53125 L 201.757812 631.34375 C 202.730469 630.25 203.4375 628.9375 203.816406 627.519531 L 262.464844 408.621094 C 269.203125 383.476562 254.230469 357.539062 229.085938 350.796875 C 203.910156 344.0625 178 359.039062 171.261719 384.183594 L 112.605469 603.085938 C 112.21875 604.5 112.179688 605.984375 112.472656 607.417969 L 129.402344 690.160156 C 130.121094 693.664062 132.753906 696.457031 136.210938 697.382812 Z M 177.492188 630.238281 L 170.484375 638.144531 L 136.152344 628.945312 L 134.039062 618.597656 Z M 144.121094 667.867188 L 140.394531 649.625 L 156.484375 653.941406 Z M 188.011719 613.507812 L 169.769531 608.617188 L 218.640625 426.203125 L 236.882812 431.09375 Z M 224.195312 369.039062 C 239.28125 373.078125 248.261719 388.648438 244.21875 403.730469 L 241.773438 412.851562 L 187.046875 398.195312 L 189.492188 389.074219 C 193.542969 373.984375 209.105469 365.007812 224.195312 369.039062 Z M 182.164062 416.429688 L 200.410156 421.320312 L 151.535156 603.734375 L 133.292969 598.84375 Z M 182.164062 416.429688 " fill-opacity="1" fill-rule="nonzero"/></g><path fill="#ffffff" d="M 556.070312 574.957031 L 556.070312 546.628906 L 537.1875 546.628906 L 537.1875 574.957031 C 537.1875 611.402344 507.539062 641.050781 471.089844 641.050781 L 452.207031 641.050781 C 415.757812 641.050781 386.109375 611.402344 386.109375 574.957031 L 386.109375 404.996094 C 386.109375 358.140625 347.980469 320.015625 301.128906 320.015625 L 291.6875 320.015625 L 291.6875 338.898438 L 301.128906 338.898438 C 337.578125 338.898438 367.226562 368.546875 367.226562 404.996094 L 367.226562 574.957031 C 367.226562 621.808594 405.351562 659.9375 452.207031 659.9375 L 471.089844 659.9375 C 517.941406 659.9375 556.070312 621.808594 556.070312 574.957031 Z M 556.070312 574.957031 " fill-opacity="1" fill-rule="nonzero"/><path fill="#ffffff" d="M 537.1875 508.859375 L 556.070312 508.859375 L 556.070312 527.742188 L 537.1875 527.742188 Z M 537.1875 508.859375 " fill-opacity="1" fill-rule="nonzero"/><path fill="#ffffff" d="M 595.265625 242.878906 L 567.628906 238.660156 L 555.183594 212.136719 C 553.625 208.820312 550.292969 206.707031 546.628906 206.707031 C 542.964844 206.707031 539.632812 208.820312 538.082031 212.136719 L 525.636719 238.660156 L 498 242.878906 C 494.496094 243.417969 491.597656 245.863281 490.476562 249.214844 C 489.351562 252.566406 490.203125 256.277344 492.664062 258.808594 L 512.9375 279.589844 L 508.132812 309.050781 C 507.546875 312.621094 509.058594 316.207031 512.011719 318.296875 C 514.96875 320.382812 518.859375 320.582031 522.023438 318.84375 L 546.628906 305.238281 L 571.234375 318.832031 C 572.671875 319.617188 574.238281 320.015625 575.804688 320.015625 C 577.710938 320.015625 579.621094 319.429688 581.242188 318.285156 C 584.199219 316.199219 585.710938 312.609375 585.125 309.042969 L 580.320312 279.582031 L 600.589844 258.800781 C 603.066406 256.269531 603.914062 252.566406 602.78125 249.207031 C 601.648438 245.84375 598.757812 243.417969 595.265625 242.878906 Z M 563.472656 269.820312 C 561.378906 271.960938 560.433594 274.972656 560.914062 277.929688 L 563.359375 292.90625 L 551.199219 286.183594 C 549.773438 285.398438 548.207031 285 546.628906 285 C 545.050781 285 543.484375 285.398438 542.058594 286.183594 L 529.898438 292.90625 L 532.34375 277.929688 C 532.824219 274.972656 531.878906 271.960938 529.785156 269.820312 L 519.011719 258.78125 L 533.464844 256.570312 C 536.582031 256.089844 539.253906 254.097656 540.585938 251.246094 L 546.628906 238.375 L 552.671875 251.246094 C 554.011719 254.097656 556.683594 256.089844 559.792969 256.570312 L 574.246094 258.78125 Z M 563.472656 269.820312 " fill-opacity="1" fill-rule="nonzero"/><path fill="#ffffff" d="M 253.917969 320.015625 L 272.800781 320.015625 L 272.800781 338.898438 L 253.917969 338.898438 Z M 253.917969 320.015625 " fill-opacity="1" fill-rule="nonzero"/></svg>