<svg xmlns="http://www.w3.org/2000/svg" xmlns:xlink="http://www.w3.org/1999/xlink" width="1080" zoomAndPan="magnify" viewBox="0 0 810 809.999993" height="1080" preserveAspectRatio="xMidYMid meet" version="1.0"><path fill="#ffffff" d="M 250.613281 295.328125 L 295.328125 250.613281 L 255.570312 210.859375 C 251.457031 206.746094 244.710938 206.746094 240.597656 210.859375 L 210.859375 240.597656 C 206.746094 244.710938 206.746094 251.457031 210.859375 255.570312 Z M 250.613281 295.328125 " fill-opacity="1" fill-rule="nonzero"/><path fill="#ffffff" d="M 325.011719 369.761719 L 369.75 325.019531 L 485.105469 440.375 L 440.363281 485.113281 Z M 325.011719 369.761719 " fill-opacity="1" fill-rule="nonzero"/><path fill="#ffffff" d="M 559.589844 514.878906 L 514.878906 559.589844 L 554.421875 599.132812 C 558.535156 603.246094 565.285156 603.246094 569.394531 599.132812 L 599.132812 569.394531 C 603.246094 565.285156 603.246094 558.535156 599.132812 554.421875 Z M 559.589844 514.878906 " fill-opacity="1" fill-rule="nonzero"/><path fill="#ffffff" d="M 305.765625 649.328125 C 301.652344 653.441406 301.652344 660.191406 305.765625 664.300781 L 335.503906 694.039062 C 339.617188 698.152344 346.367188 698.152344 350.476562 694.039062 L 390.128906 654.496094 L 345.417969 609.785156 Z M 305.765625 649.328125 " fill-opacity="1" fill-rule="nonzero"/><path fill="#ffffff" d="M 420.070312 535.171875 L 535.347656 419.890625 L 580.085938 464.632812 L 464.808594 579.910156 Z M 420.070312 535.171875 " fill-opacity="1" fill-rule="nonzero"/><path fill="#ffffff" d="M 694.039062 350.476562 C 698.152344 346.367188 698.152344 339.617188 694.039062 335.503906 L 664.300781 305.765625 C 660.191406 301.652344 653.441406 301.652344 649.328125 305.765625 L 609.785156 345.417969 L 654.496094 390.128906 Z M 694.039062 350.476562 " fill-opacity="1" fill-rule="nonzero"/><path fill="#ffffff" d="M 115.953125 459.515625 C 111.839844 463.628906 111.839844 470.375 115.953125 474.488281 L 145.691406 504.226562 C 149.804688 508.339844 156.550781 508.339844 160.664062 504.226562 L 200.3125 464.683594 L 155.601562 419.96875 Z M 115.953125 459.515625 " fill-opacity="1" fill-rule="nonzero"/><path fill="#ffffff" d="M 230.195312 345.355469 L 345.472656 230.078125 L 390.210938 274.816406 L 274.933594 390.097656 Z M 230.195312 345.355469 " fill-opacity="1" fill-rule="nonzero"/><path fill="#ffffff" d="M 504.226562 160.664062 C 508.339844 156.550781 508.339844 149.804688 504.226562 145.691406 L 474.488281 115.953125 C 470.375 111.839844 463.628906 111.839844 459.515625 115.953125 L 419.96875 155.601562 L 464.683594 200.3125 Z M 504.226562 160.664062 " fill-opacity="1" fill-rule="nonzero"/><path fill="#ffffff" d="M 440.324219 295.222656 L 485.035156 250.507812 L 350.476562 115.953125 C 346.363281 111.839844 339.617188 111.839844 335.503906 115.953125 L 305.765625 145.691406 C 301.652344 149.804688 301.652344 156.550781 305.765625 160.664062 Z M 440.324219 295.222656 " fill-opacity="1" fill-rule="nonzero"/><path fill="#ffffff" d="M 559.484375 324.957031 L 514.878906 369.777344 L 649.328125 504.226562 C 653.441406 508.339844 660.191406 508.339844 664.304688 504.226562 L 694.039062 474.488281 C 698.152344 470.375 698.152344 463.628906 694.039062 459.515625 Z M 559.484375 324.957031 " fill-opacity="1" fill-rule="nonzero"/><path fill="#ffffff" d="M 250.507812 485.035156 L 295.222656 440.324219 L 160.664062 305.765625 C 156.550781 301.652344 149.804688 301.652344 145.691406 305.765625 L 115.953125 335.503906 C 111.839844 339.617188 111.839844 346.367188 115.953125 350.476562 Z M 250.507812 485.035156 " fill-opacity="1" fill-rule="nonzero"/><path fill="#ffffff" d="M 369.777344 514.878906 L 325.0625 559.589844 L 459.515625 694.039062 C 463.628906 698.152344 470.375 698.152344 474.488281 694.039062 L 504.226562 664.300781 C 508.339844 660.191406 508.339844 653.441406 504.226562 649.328125 Z M 369.777344 514.878906 " fill-opacity="1" fill-rule="nonzero"/><path fill="#ffffff" d="M 345.417969 419.96875 L 210.859375 554.421875 C 206.746094 558.535156 206.746094 565.285156 210.859375 569.394531 L 240.597656 599.132812 C 244.710938 603.246094 251.457031 603.246094 255.570312 599.132812 L 390.128906 464.683594 Z M 345.417969 419.96875 " fill-opacity="1" fill-rule="nonzero"/><path fill="#ffffff" d="M 464.683594 390.128906 L 599.132812 255.570312 C 603.246094 251.457031 603.246094 244.710938 599.132812 240.597656 L 569.394531 210.859375 C 565.285156 206.746094 558.535156 206.746094 554.421875 210.859375 L 419.96875 345.417969 Z M 464.683594 390.128906 " fill-opacity="1" fill-rule="nonzero"/></svg>